<svg width="50" height="50" viewBox="0 0 50 50" fill="none" xmlns="http://www.w3.org/2000/svg">
<rect x="18.5" y="44" width="25" height="5" rx="1" fill="url(#paint0_linear)"/>
<path fill-rule="evenodd" clip-rule="evenodd" d="M23.6899 9.01999C23.4199 9.01999 23.1699 8.82999 23.1099 8.54999L21.3299 0.739987C21.2499 0.419987 21.4599 0.089987 21.7799 0.019987C22.1099 -0.060013 22.4299 0.149987 22.4999 0.469987L24.2699 8.27999C24.3499 8.59999 24.1399 8.92999 23.8199 8.99999C23.7799 9.01999 23.7299 9.01999 23.6899 9.01999ZM46.69 30.96C46.22 32.01 42.96 38.26 41.91 40.12C41.43 40.96 41.22 41.77 41.18 42.93V43.42C41.84 43.7 42.3 44.35 42.3 45.1V47.58C42.3 48.58 41.48 49.4 40.48 49.4H17.65C16.65 49.4 15.83 48.58 15.83 47.58V45.1C15.83 44.1 16.65 43.28 17.65 43.28H19.66L18.5 31.79C17.14 31.14 16.17 29.52 16.17 27.61V20.17C16.17 17.69 17.79 15.68 19.79 15.68H19.91C20.91 15.68 21.82 16.19 22.48 17.01C22.9 15.12 24.29 13.72 25.95 13.72H26.07C27.05 13.72 27.94 14.2 28.59 14.99C28.96 13.35 30.42 12.12 32.17 12.12C33.13 12.12 33.99 12.5 34.65 13.1V3.63001C34.65 1.63001 36.27 0.0100098 38.27 0.0100098H38.39C40.39 0.0100098 42.01 1.63001 42.01 3.63001V20.11C45.19 21 47.37 24.71 47.37 27.31C47.37 29.33 47.19 29.83 46.69 30.96ZM32.16 13.32C30.79 13.32 29.68 14.43 29.68 15.8H29.69V18.2V24.6C29.69 25.97 30.8 27.08 32.17 27.08L32.2395 27.0778C32.5266 27.0691 32.8741 27.0586 33.29 26.92C32.37 26.34 31.5 25.25 31.5 23.68C31.5 21.34 33.56 19.91 34.68 19.91H35.24H40.56H40.8V3.63001C40.8 2.30001 39.72 1.21001 38.38 1.21001H38.26C36.93 1.21001 35.84 2.29001 35.84 3.63001V15.8V16.96V17.03C35.84 17.36 35.57 17.63 35.24 17.63C34.91 17.63 34.64 17.36 34.64 17.03V16.96V15.8C34.64 14.43 33.53 13.32 32.16 13.32ZM25.94 14.91C24.61 14.91 23.52 16.39 23.52 18.2V20.16V25.64C23.52 27.45 24.6 28.93 25.94 28.93H26.06C27.39 28.93 28.48 27.45 28.48 25.64V24.59V18.2C28.48 16.39 27.4 14.91 26.06 14.91H25.94ZM17.36 20.17V27.61C17.36 29.42 18.44 30.89 19.78 30.9H19.9C21.23 30.9 22.32 29.42 22.32 27.61V25.65V20.17C22.32 18.36 21.24 16.88 19.9 16.88H19.78C18.45 16.88 17.36 18.36 17.36 20.17ZM19.75 32.095C19.74 32.0925 19.73 32.09 19.72 32.09L20.85 43.28H39.95C39.95 43.2371 39.9489 43.1931 39.9478 43.1488V43.1485C39.9455 43.0586 39.9433 42.967 39.95 42.88C39.99 41.94 40.13 40.8 40.84 39.54C41.89 37.69 45.11 31.51 45.57 30.48L45.5808 30.4551C45.9828 29.5337 46.14 29.1734 46.14 27.32C46.14 24.87 43.74 21.11 40.54 21.11H35.22H34.66C34.27 21.11 32.68 21.94 32.68 23.68C32.68 25.45 34.21 26.21 34.7 26.21H41C41.33 26.21 41.6 26.48 41.6 26.81C41.6 27.14 41.33 27.41 41 27.41H38.97C35.92 27.41 33.43 31.8 33.43 33.22V35.1C33.43 35.43 33.16 35.7 32.83 35.7C32.5 35.7 32.23 35.43 32.23 35.1V33.22C32.23 31.82 33.62 29.01 35.74 27.41H34.9C33.74 28.23 32.83 28.28 32.3 28.28H32.22C31.12 28.28 30.15 27.82 29.47 27.09C28.99 28.86 27.65 30.14 26.06 30.14H25.94C24.94 30.14 24.03 29.63 23.37 28.81C22.95 30.7 21.56 32.1 19.9 32.1H19.78C19.77 32.1 19.76 32.0975 19.75 32.095ZM40.46 48.19C40.8 48.19 41.08 47.91 41.08 47.57V45.09C41.08 44.75 40.8 44.47 40.46 44.47H17.63C17.29 44.47 17.01 44.75 17.01 45.09V47.57C17.01 47.91 17.29 48.19 17.63 48.19H40.46ZM38.5299 46.3301C38.5299 45.9201 38.8699 45.5801 39.2799 45.5801C39.6899 45.5801 40.0299 45.9101 40.0299 46.3301C40.0299 46.7501 39.6899 47.0801 39.2799 47.0801C38.8699 47.0801 38.5299 46.7401 38.5299 46.3301ZM11.2299 28.5401L3.44995 30.4901C3.12995 30.5701 2.92995 30.9001 3.00995 31.2201C3.07995 31.4901 3.31995 31.6801 3.58995 31.6801C3.63995 31.6801 3.68995 31.6701 3.73995 31.6601L11.52 29.7101C11.84 29.6301 12.04 29.3001 11.96 28.9801C11.88 28.6601 11.5499 28.4601 11.2299 28.5401ZM11.03 21.17L3.41001 18.68C3.10001 18.58 2.93001 18.24 3.03001 17.92C3.14001 17.61 3.48001 17.43 3.79001 17.54L11.41 20.03C11.72 20.14 11.89 20.47 11.79 20.79C11.71 21.04 11.47 21.2 11.22 21.2C11.15 21.2 11.09 21.19 11.03 21.17ZM16.16 12.4099L10.74 6.49987C10.52 6.25987 10.14 6.23987 9.89001 6.45987C9.65001 6.67987 9.63001 7.05987 9.85001 7.30987L15.27 13.2199C15.39 13.3499 15.55 13.4099 15.71 13.4099C15.86 13.4099 16 13.3599 16.12 13.2499C16.36 13.0299 16.38 12.6499 16.16 12.4099Z" fill="#343434"/>
<defs>
<linearGradient id="paint0_linear" x1="18.5" y1="44" x2="30.8301" y2="59.2464" gradientUnits="userSpaceOnUse">
<stop stop-color="#00BCFD"/>
<stop offset="1" stop-color="#23D2B5"/>
</linearGradient>
</defs>
</svg>
