<svg width="50" height="50" viewBox="0 0 50 50" fill="none" xmlns="http://www.w3.org/2000/svg">
<g clip-path="url(#clip0)">
<path d="M35.08 2.5C32.5049 2.50678 30.0084 3.38829 28 5C26 6.56 24.28 7.94 23.49 9.39L20.49 12.62C36.07 3.15 44.13 10.82 46.7 22.19C47.31 24.89 49.4 20.5 49.54 17.95C50 9.28 42.37 2.5 35.08 2.5Z" fill="url(#paint0_linear)"/>
<path d="M1.51999 21.7002C2.17999 24.1702 -0.230008 16.3702 8.44999 10.3702C13.3 7.00015 20 8.46015 23.34 10.1702C24.47 10.7502 22.77 9.92015 22.86 9.17015C22.95 8.42015 22.21 7.74015 20.71 6.52015C18.31 5.34015 13.27 3.69015 10.71 4.21015C3.57999 5.68015 -0.690007 13.3402 1.51999 21.7002Z" fill="url(#paint1_linear)"/>
<path d="M48.92 11.6C46.53 5.83004 40.87 1.79004 35.16 1.79004C33.4023 1.83188 31.6708 2.22605 30.0682 2.9492C28.4656 3.67235 27.0244 4.70978 25.83 6.00004L23.32 8.46004L22 7.11004C20.9109 5.9452 19.5993 5.01052 18.1428 4.36127C16.6863 3.71202 15.1144 3.36136 13.52 3.33004C8.3 3.33004 3.16 7.00004 0.999996 12.25C0.0268835 14.4499 -0.238889 16.8977 0.239411 19.2552C0.717712 21.6127 1.91647 23.7634 3.67 25.41L7.8 29.55L7.18 30.17C6.7796 30.5639 6.50219 31.0656 6.38148 31.6141C6.26076 32.1627 6.30194 32.7345 6.5 33.26C6.68068 33.7928 7.01398 34.2608 7.45847 34.6057C7.90295 34.9506 8.43901 35.1573 9 35.2L9.59 35.26L9.65 35.86C9.70877 36.5458 10.0079 37.1888 10.4946 37.6755C10.9813 38.1621 11.6242 38.4613 12.31 38.52L12.91 38.58L12.96 39.18C13.0318 39.8636 13.3362 40.5018 13.8222 40.9878C14.3083 41.4738 14.9464 41.7782 15.63 41.85H16.23L16.29 42.45C16.3693 43.189 16.72 43.8722 17.2742 44.3674C17.8285 44.8625 18.5468 45.1343 19.29 45.13C19.6738 45.1344 20.0545 45.0604 20.4087 44.9126C20.7629 44.7647 21.0832 44.546 21.35 44.27L21.98 43.64L25.43 47.1C25.7468 47.4315 26.1268 47.6961 26.5476 47.8782C26.9685 48.0602 27.4215 48.1561 27.88 48.16C28.86 48.1266 29.7936 47.7343 30.5034 47.0577C31.2132 46.3811 31.6497 45.4673 31.73 44.49V43.85H32.37C33.3173 43.7648 34.2046 43.3498 34.8772 42.6772C35.5497 42.0047 35.9648 41.1173 36.05 40.17V39.53H36.7C37.6482 39.4546 38.5384 39.0437 39.211 38.3711C39.8836 37.6985 40.2945 36.8082 40.37 35.86V35.22H41.01C41.7444 35.1625 42.4486 34.9032 43.045 34.4709C43.6414 34.0386 44.1068 33.45 44.39 32.77C44.6569 32.1772 44.7461 31.5196 44.6467 30.877C44.5473 30.2345 44.2636 29.6346 43.83 29.15L43.39 28.64L46 26.08C47.9257 24.2656 49.2409 21.8983 49.7639 19.3046C50.2869 16.711 49.9921 14.019 48.92 11.6ZM10.5 33.49C10.3425 33.6515 10.1544 33.7798 9.94655 33.8674C9.73874 33.9549 9.51551 34.0001 9.29 34C8.93608 33.9927 8.5921 33.8817 8.3006 33.6809C8.00911 33.48 7.78291 33.1981 7.65 32.87C7.50963 32.56 7.46793 32.2144 7.53053 31.8799C7.59314 31.5454 7.75702 31.2383 8 31L10.82 28.18C10.9747 28.0171 11.1608 27.887 11.367 27.7977C11.5732 27.7083 11.7953 27.6615 12.02 27.66C12.3736 27.6687 12.717 27.7801 13.0083 27.9808C13.2995 28.1815 13.526 28.4627 13.66 28.79C13.7924 29.1012 13.826 29.4455 13.7562 29.7764C13.6865 30.1073 13.5167 30.4088 13.27 30.64L10.5 33.49ZM13.79 36.84C13.6388 36.9946 13.4584 37.1175 13.2592 37.2016C13.0601 37.2857 12.8462 37.3294 12.63 37.33C12.2791 37.3158 11.9394 37.202 11.6508 37.0019C11.3621 36.8018 11.1364 36.5237 11 36.2C10.8725 35.8889 10.8424 35.5464 10.9139 35.2178C10.9853 34.8893 11.1548 34.5901 11.4 34.36L14.21 31.55C14.3606 31.3849 14.5424 31.2513 14.7449 31.1569C14.9475 31.0624 15.1667 31.0091 15.39 31C15.7246 31.0016 16.0521 31.0959 16.3363 31.2725C16.6206 31.449 16.8503 31.7008 17 32C17.1654 32.325 17.2227 32.6944 17.1633 33.0542C17.1039 33.414 16.9311 33.7454 16.67 34L13.79 36.84ZM15.93 40.65C15.5865 40.6428 15.2521 40.5384 14.9654 40.3491C14.6787 40.1597 14.4515 39.8931 14.31 39.58C14.1753 39.2697 14.1357 38.9263 14.1963 38.5934C14.2568 38.2606 14.4147 37.9531 14.65 37.71L17.5 34.86C17.6554 34.698 17.8416 34.5685 18.0477 34.4793C18.2537 34.39 18.4755 34.3426 18.7 34.34C19.0539 34.3474 19.3979 34.4584 19.6894 34.6592C19.9809 34.86 20.2071 35.142 20.34 35.47C20.4785 35.7763 20.5202 36.1176 20.4594 36.4482C20.3987 36.7788 20.2384 37.083 20 37.32L17.19 40.13C17.0276 40.2994 16.8317 40.4332 16.6147 40.5227C16.3978 40.6122 16.1646 40.6556 15.93 40.65ZM20.46 43.45C20.3053 43.613 20.1192 43.743 19.913 43.8324C19.7068 43.9217 19.4847 43.9686 19.26 43.97C18.9072 43.9635 18.564 43.854 18.2727 43.655C17.9813 43.4561 17.7544 43.1763 17.62 42.85C17.4864 42.5398 17.4512 42.1961 17.5191 41.8653C17.5871 41.5345 17.7549 41.2324 18 41L20.81 38.19C20.9643 38.0292 21.1488 37.9004 21.3531 37.8112C21.5573 37.7219 21.7772 37.674 22 37.67C22.3528 37.6766 22.6959 37.786 22.9873 37.985C23.2787 38.184 23.5056 38.4638 23.64 38.79C23.7695 39.1017 23.8016 39.4453 23.732 39.7755C23.6624 40.1058 23.4943 40.4072 23.25 40.64L20.46 43.45ZM43.33 32.29C43.1307 32.7492 42.8068 33.1434 42.395 33.428C41.9832 33.7125 41.5 33.876 41 33.9C40.4165 33.898 39.8568 33.6684 39.44 33.26L35.09 29C34.9762 28.8895 34.8237 28.8276 34.665 28.8276C34.5063 28.8276 34.3538 28.8895 34.24 29C34.1294 29.1139 34.0676 29.2663 34.0676 29.425C34.0676 29.5837 34.1294 29.7362 34.24 29.85L38.57 34.18C38.8843 34.5056 39.0927 34.9187 39.1677 35.3649C39.2426 35.8112 39.1807 36.2697 38.99 36.68C38.7895 37.1444 38.4612 37.5422 38.0434 37.8272C37.6256 38.1123 37.1355 38.2728 36.63 38.29C36.0649 38.2839 35.5226 38.0663 35.11 37.68L30.74 33.3C30.685 33.2429 30.6189 33.1974 30.5459 33.1663C30.4729 33.1353 30.3944 33.1193 30.315 33.1193C30.2356 33.1193 30.1571 33.1353 30.0841 33.1663C30.011 33.1974 29.945 33.2429 29.89 33.3C29.7801 33.4122 29.7185 33.563 29.7185 33.72C29.7185 33.8771 29.7801 34.0279 29.89 34.14L34.2 38.5C34.5107 38.8277 34.7167 39.2406 34.7915 39.6859C34.8663 40.1313 34.8066 40.5888 34.62 41C34.4173 41.4656 34.0874 41.8646 33.6681 42.1511C33.2489 42.4377 32.7574 42.6002 32.25 42.62C31.6701 42.6193 31.1122 42.3976 30.69 42L26.38 37.68C26.2662 37.5695 26.1137 37.5076 25.955 37.5076C25.7963 37.5076 25.6438 37.5695 25.53 37.68C25.4194 37.7939 25.3576 37.9463 25.3576 38.105C25.3576 38.2637 25.4194 38.4162 25.53 38.53L29.72 42.71C30.0424 43.0217 30.2727 43.4161 30.3856 43.8501C30.4985 44.2841 30.4897 44.7408 30.36 45.17C30.1821 45.6893 29.8506 46.1424 29.4096 46.4691C28.9685 46.7959 28.4386 46.9811 27.89 47C27.5868 46.998 27.2872 46.935 27.0088 46.8147C26.7305 46.6944 26.4793 46.5194 26.27 46.3L22.82 42.85L24.14 41.53C24.5573 41.1023 24.8374 40.5597 24.9443 39.9717C25.0512 39.3838 24.98 38.7773 24.74 38.23C24.5141 37.739 24.1598 37.3181 23.7145 37.0118C23.2691 36.7055 22.7493 36.5253 22.21 36.49H21.72V35.89C21.6616 35.1862 21.3569 34.5256 20.8593 34.0243C20.3618 33.5231 19.7034 33.2135 19 33.15H18.4V32.55C18.337 31.8641 18.0353 31.2221 17.5473 30.7359C17.0593 30.2498 16.4161 29.9504 15.73 29.89L15.13 29.83L15.07 29.23C14.993 28.4893 14.6433 27.8036 14.0888 27.3064C13.5343 26.8092 12.8147 26.5361 12.07 26.54C11.6858 26.5393 11.3054 26.6159 10.9514 26.7654C10.5975 26.9148 10.2773 27.1341 10.01 27.41L8.67 28.68L4.53 24.54C2.94486 23.0484 1.86244 21.1011 1.43248 18.9674C1.00252 16.8337 1.24626 14.6191 2.13 12.63C4.13 7.90004 8.74 4.63004 13.44 4.63004C14.877 4.6528 16.2949 4.96266 17.6104 5.5414C18.9258 6.12014 20.1123 6.95607 21.1 8.00004L22.45 9.36004L10.38 21.4C10.0793 21.6252 9.86001 21.9422 9.75538 22.303C9.65074 22.6638 9.6664 23.0489 9.8 23.4C10.202 24.0541 10.7699 24.5902 11.4461 24.9537C12.1223 25.3173 12.8827 25.4954 13.65 25.47C14.4726 25.5026 15.2745 25.2077 15.88 24.65L22.73 17.8C22.8327 17.6972 22.9566 17.618 23.093 17.5679C23.2294 17.5178 23.3752 17.4981 23.52 17.51L30.9 18.14C31.1368 18.1626 31.3589 18.2648 31.53 18.43L42.91 29.79C43.2243 30.1156 43.4327 30.5287 43.5077 30.9749C43.5826 31.4212 43.5207 31.8797 43.33 32.29ZM42.59 27.73L32.1 17.24C31.9313 17.0713 31.7079 16.9685 31.47 16.95L23.05 16.23C22.9035 16.2166 22.7559 16.2356 22.6176 16.2857C22.4793 16.3358 22.3538 16.4158 22.25 16.52L15 23.75C14.89 23.86 14.65 24.1 13.36 24.1C12.07 24.1 11.36 23.82 11.17 23.25C11.0869 23.0195 11.0788 22.7686 11.1471 22.5333C11.2154 22.2979 11.3564 22.0903 11.55 21.94L26.7 6.81004C27.7923 5.65777 29.1048 4.73654 30.5597 4.10097C32.0147 3.4654 33.5824 3.12843 35.17 3.11004C40.45 3.11004 45.66 6.77004 47.84 12.02C48.8041 14.2319 49.0584 16.6884 48.5676 19.0508C48.0769 21.4132 46.8653 23.5652 45.1 25.21L42.59 27.73Z" fill="#343434"/>
</g>
<defs>
<linearGradient id="paint0_linear" x1="20.49" y1="2.5" x2="52.791" y2="13.8068" gradientUnits="userSpaceOnUse">
<stop stop-color="#00BCFD"/>
<stop offset="1" stop-color="#23D2B5"/>
</linearGradient>
<linearGradient id="paint1_linear" x1="0.935333" y1="4.11157" x2="26.8416" y2="12.1986" gradientUnits="userSpaceOnUse">
<stop stop-color="#00BCFD"/>
<stop offset="1" stop-color="#23D2B5"/>
</linearGradient>
<clipPath id="clip0">
<rect width="50" height="50" fill="white"/>
</clipPath>
</defs>
</svg>
